<?xml version="1.0" standalone="no"?>
<!DOCTYPE svg PUBLIC "-//W3C//DTD SVG 20010904//EN"
 "http://www.w3.org/TR/2001/REC-SVG-20010904/DTD/svg10.dtd">
<svg version="1.0" xmlns="http://www.w3.org/2000/svg"
 width="48.000000pt" height="48.000000pt" viewBox="0 0 48.000000 48.000000"
 preserveAspectRatio="xMidYMid meet">

<g transform="translate(0.000000,48.000000) scale(0.100000,-0.100000)"
fill="#000000" stroke="none">
<path d="M145 345 c-22 -8 -47 -24 -55 -36 -8 -12 -28 -34 -45 -50 -23 -23
-26 -29 -12 -29 10 0 17 -8 17 -20 0 -12 -7 -20 -16 -20 -18 0 -14 -21 7 -30
44 -22 83 -29 101 -19 16 9 92 8 218 -1 38 -3 95 16 98 33 2 10 -3 17 -12 17
-8 0 -16 10 -18 23 -2 16 -13 24 -42 32 -28 7 -45 19 -62 47 -13 20 -32 41
-41 46 -35 19 -98 22 -138 7z m-9 -156 c10 -17 -13 -36 -27 -22 -12 12 -4 33
11 33 5 0 12 -5 16 -11z m240 0 c10 -17 -13 -36 -27 -22 -12 12 -4 33 11 33 5
0 12 -5 16 -11z"/>
</g>
</svg>
